<mxfile host="app.diagrams.net" modified="2022-05-02T09:58:21.436Z" agent="5.0 (Windows NT 10.0; Win64; x64) AppleWebKit/537.36 (KHTML, like Gecko) Chrome/100.0.4896.127 Safari/537.36" etag="u7EhHHVDQPDZ3oHjs-bI" version="17.4.6" type="github">
  <diagram name="Page-1" id="9361dd3d-8414-5efd-6122-117bd74ce7a7">
    <mxGraphModel dx="1673" dy="1296" grid="1" gridSize="10" guides="1" tooltips="1" connect="1" arrows="1" fold="1" page="0" pageScale="1.5" pageWidth="826" pageHeight="1169" background="none" math="0" shadow="0">
      <root>
        <mxCell id="0" />
        <mxCell id="1" parent="0" />
        <mxCell id="69" value="" style="fillColor=#DEE8FF;strokeColor=none" parent="1" vertex="1">
          <mxGeometry x="70" y="-130" width="1570" height="800" as="geometry" />
        </mxCell>
        <mxCell id="71" value="AOP Flow Worker Job Procesing" style="rounded=1;fontStyle=1;fillColor=#FFD966;strokeColor=none" parent="1" vertex="1">
          <mxGeometry x="80" y="-110" width="210" height="30" as="geometry" />
        </mxCell>
        <mxCell id="YKI4oU7lkPmLeSKTnHA6-117" value="" style="group" vertex="1" connectable="0" parent="1">
          <mxGeometry x="710" y="-70" width="900" height="580" as="geometry" />
        </mxCell>
        <mxCell id="YKI4oU7lkPmLeSKTnHA6-108" value="Salesforce Org (With AOP Package)" style="shape=umlLifeline;perimeter=lifelinePerimeter;whiteSpace=wrap;html=1;container=1;collapsible=0;recursiveResize=0;outlineConnect=0;fillColor=#dae8fc;strokeColor=#6c8ebf;fontStyle=1" vertex="1" parent="YKI4oU7lkPmLeSKTnHA6-117">
          <mxGeometry width="136.36363636363635" height="580" as="geometry" />
        </mxCell>
        <mxCell id="YKI4oU7lkPmLeSKTnHA6-94" value="AOP Flow Queue" style="shape=umlLifeline;perimeter=lifelinePerimeter;whiteSpace=wrap;html=1;container=1;collapsible=0;recursiveResize=0;outlineConnect=0;fillColor=#f8cecc;strokeColor=#b85450;fontStyle=1" vertex="1" parent="YKI4oU7lkPmLeSKTnHA6-117">
          <mxGeometry x="504.54545454545456" width="136.36363636363635" height="580" as="geometry" />
        </mxCell>
        <mxCell id="YKI4oU7lkPmLeSKTnHA6-95" value="" style="html=1;points=[];perimeter=orthogonalPerimeter;" vertex="1" parent="YKI4oU7lkPmLeSKTnHA6-94">
          <mxGeometry x="61.36363636363635" y="141.7777777777778" width="13.636363636363633" height="103.11111111111111" as="geometry" />
        </mxCell>
        <mxCell id="YKI4oU7lkPmLeSKTnHA6-96" value="Publish Job on queue" style="html=1;verticalAlign=bottom;endArrow=block;entryX=0;entryY=0;rounded=0;labelBackgroundColor=none;" edge="1" target="YKI4oU7lkPmLeSKTnHA6-95" parent="YKI4oU7lkPmLeSKTnHA6-117" source="YKI4oU7lkPmLeSKTnHA6-89">
          <mxGeometry relative="1" as="geometry">
            <mxPoint x="477.27272727272725" y="335.11111111111114" as="sourcePoint" />
          </mxGeometry>
        </mxCell>
        <mxCell id="YKI4oU7lkPmLeSKTnHA6-97" value="return" style="html=1;verticalAlign=bottom;endArrow=open;dashed=1;endSize=8;exitX=0;exitY=0.95;rounded=0;labelBackgroundColor=none;" edge="1" source="YKI4oU7lkPmLeSKTnHA6-95" parent="YKI4oU7lkPmLeSKTnHA6-117" target="YKI4oU7lkPmLeSKTnHA6-89">
          <mxGeometry relative="1" as="geometry">
            <mxPoint x="477.27272727272725" y="433.0666666666667" as="targetPoint" />
          </mxGeometry>
        </mxCell>
        <mxCell id="YKI4oU7lkPmLeSKTnHA6-99" value="AOP Flow Consumer(s)" style="shape=umlLifeline;perimeter=lifelinePerimeter;whiteSpace=wrap;html=1;container=1;collapsible=0;recursiveResize=0;outlineConnect=0;fillColor=#e1d5e7;strokeColor=#9673a6;fontStyle=1" vertex="1" parent="YKI4oU7lkPmLeSKTnHA6-117">
          <mxGeometry x="763.6363636363636" width="136.36363636363635" height="580" as="geometry" />
        </mxCell>
        <mxCell id="YKI4oU7lkPmLeSKTnHA6-104" value="" style="html=1;points=[];perimeter=orthogonalPerimeter;" vertex="1" parent="YKI4oU7lkPmLeSKTnHA6-99">
          <mxGeometry x="61.36363636363635" y="141.7777777777778" width="13.636363636363633" height="180.44444444444446" as="geometry" />
        </mxCell>
        <mxCell id="YKI4oU7lkPmLeSKTnHA6-105" value="Consume the job message" style="html=1;verticalAlign=bottom;endArrow=block;entryX=0;entryY=0;rounded=0;labelBackgroundColor=none;" edge="1" target="YKI4oU7lkPmLeSKTnHA6-104" parent="YKI4oU7lkPmLeSKTnHA6-117" source="YKI4oU7lkPmLeSKTnHA6-95">
          <mxGeometry x="-0.5714" relative="1" as="geometry">
            <mxPoint x="729.5454545454546" y="141.7777777777778" as="sourcePoint" />
            <mxPoint as="offset" />
          </mxGeometry>
        </mxCell>
        <mxCell id="YKI4oU7lkPmLeSKTnHA6-111" value="" style="html=1;points=[];perimeter=orthogonalPerimeter;" vertex="1" parent="YKI4oU7lkPmLeSKTnHA6-117">
          <mxGeometry x="61.36363636363637" y="103.11111111111111" width="13.636363636363637" height="283.5555555555556" as="geometry" />
        </mxCell>
        <mxCell id="YKI4oU7lkPmLeSKTnHA6-106" value="callBack to SF Org" style="html=1;verticalAlign=bottom;endArrow=open;dashed=1;endSize=8;exitX=0;exitY=0.95;rounded=0;entryX=1;entryY=0.743;entryDx=0;entryDy=0;entryPerimeter=0;labelBackgroundColor=none;" edge="1" source="YKI4oU7lkPmLeSKTnHA6-104" parent="YKI4oU7lkPmLeSKTnHA6-117" target="YKI4oU7lkPmLeSKTnHA6-111">
          <mxGeometry relative="1" as="geometry">
            <mxPoint x="729.5454545454546" y="239.73333333333335" as="targetPoint" />
          </mxGeometry>
        </mxCell>
        <mxCell id="YKI4oU7lkPmLeSKTnHA6-112" value="&lt;font style=&quot;font-size: 8px&quot;&gt;Create AOP Job on FlowWorker&lt;/font&gt;" style="html=1;verticalAlign=bottom;endArrow=block;rounded=0;labelBackgroundColor=none;" edge="1" parent="YKI4oU7lkPmLeSKTnHA6-117" target="YKI4oU7lkPmLeSKTnHA6-89">
          <mxGeometry width="80" relative="1" as="geometry">
            <mxPoint x="75" y="116.00000000000001" as="sourcePoint" />
            <mxPoint x="184.0909090909091" y="116.00000000000001" as="targetPoint" />
          </mxGeometry>
        </mxCell>
        <mxCell id="YKI4oU7lkPmLeSKTnHA6-113" value="Flow Worker JOB API" style="shape=umlLifeline;perimeter=lifelinePerimeter;whiteSpace=wrap;html=1;container=1;collapsible=0;recursiveResize=0;outlineConnect=0;labelBackgroundColor=none;fontSize=12;fillColor=#e1d5e7;strokeColor=#9673a6;fontStyle=1" vertex="1" parent="YKI4oU7lkPmLeSKTnHA6-117">
          <mxGeometry x="185.79545454545456" width="136.36363636363635" height="580" as="geometry" />
        </mxCell>
        <mxCell id="YKI4oU7lkPmLeSKTnHA6-89" value="" style="html=1;points=[];perimeter=orthogonalPerimeter;" vertex="1" parent="YKI4oU7lkPmLeSKTnHA6-117">
          <mxGeometry x="245.45454545454547" y="103.11111111111111" width="17.045454545454543" height="270.6666666666667" as="geometry" />
        </mxCell>
        <mxCell id="YKI4oU7lkPmLeSKTnHA6-114" value="Returns Job ID" style="html=1;verticalAlign=bottom;endArrow=open;dashed=1;endSize=8;rounded=0;labelBackgroundColor=none;fontSize=8;" edge="1" parent="YKI4oU7lkPmLeSKTnHA6-117" target="YKI4oU7lkPmLeSKTnHA6-111">
          <mxGeometry x="-0.2" y="-10" relative="1" as="geometry">
            <mxPoint x="245.45454545454547" y="257.77777777777777" as="sourcePoint" />
            <mxPoint x="136.36363636363635" y="257.77777777777777" as="targetPoint" />
            <mxPoint as="offset" />
          </mxGeometry>
        </mxCell>
      </root>
    </mxGraphModel>
  </diagram>
</mxfile>
